# xmcd
# 
# Track frame offsets:
#     150
#     24717
#     50317
#     62422
# 
# Disc length: 1162
# 
# Revision: 0
# Processed by: cddbd v1.5.2PL0 Copyright (c) Steve Scherf et al.
# Submitted via: fre:ac v1.0.17
# 
DISCID=2a048804
DTITLE=2ND FUNK-TION - Gonna Be Alright
DYEAR=0
DGENRE=Techno
TTITLE0=Gonna Be Alright (Rap Version)
TTITLE1=Gonna Be Alright (Extended Version)
TTITLE2=Gonna Be Alright (Radio Edit)
TTITLE3=Gonna Be Alright (Remix)
EXTD=
EXTT0=
EXTT1=
EXTT2=
EXTT3=
PLAYORDER=
